<?xml version="1.0" encoding="utf-8"?>
<!-- Generator: Adobe Illustrator 27.7.0, SVG Export Plug-In . SVG Version: 6.00 Build 0)  -->
<svg version="1.1" id="Ebene_1" xmlns="http://www.w3.org/2000/svg" xmlns:xlink="http://www.w3.org/1999/xlink" x="0px" y="0px"
	 viewBox="0 0 1642.2 485.9" style="enable-background:new 0 0 1642.2 485.9;" xml:space="preserve">
<style type="text/css">
	.st0{fill:#0F4A6F;}
	.st1{fill:#323A3E;}
</style>
<g>
	<g>
		<path class="st0" d="M287.6,334.8h12.2l13,47.2l1.1,5.5h0.6l1.1-5.5l13.1-47.2h12.2L322.2,398h-15.6L287.6,334.8z"/>
		<path class="st0" d="M350.2,334.8h11.4V398h-11.4V334.8z"/>
		<path class="st0" d="M375.9,334.8h22.7c17.3,0,26.5,9.9,26.5,28.4v6.4c0,19.6-10.1,28.4-26.5,28.4h-22.7V334.8z M398.3,388.3
			c9.9,0,14.8-5.6,14.8-15.4v-13.1c0-9.5-4.6-15.4-14.8-15.4h-11v43.9H398.3z"/>
		<path class="st0" d="M436.1,334.8h40.8v9.7h-29.4v16.7h25.6v9.2h-25.6v18H477v9.7h-40.9V334.8z"/>
		<path class="st0" d="M484.2,370.2v-7.5c0-19.3,10.3-28.7,26.6-28.7c16.4,0,26.8,9.5,26.8,28.7v7.5c0,18.8-9.5,28.7-26.8,28.7
			C493.7,398.9,484.2,389,484.2,370.2z M525.8,373.9V359c0-9.2-4.8-15.2-14.9-15.2c-10.1,0-14.8,6-14.8,15.2v14.9
			c0,10,5.6,15.2,14.8,15.2C520.2,389.1,525.8,383.9,525.8,373.9z"/>
		<path class="st0" d="M563.1,387.3h10.6V398h-10.6V387.3z"/>
		<path class="st0" d="M599.1,378.3h11.4c0.2,8,4.2,11.4,11.8,11.4c7.3,0,10.7-3.4,10.7-8.6c0-7.1-6.4-8.7-14.3-10.9
			c-10.5-2.8-18.4-7.2-18.4-18.4c0-11.6,8.7-18,21.7-18c14.2,0,21.9,6.9,22.1,19.2h-11.4c-0.2-6.8-3.6-10.2-10.8-10.2
			c-6.2,0-9.7,3.3-9.7,7.9c0,6.3,5.6,7.8,13.4,9.9c10.3,2.6,19.5,6.7,19.5,19.6c0,12.8-9.5,18.6-23.1,18.6
			C606.5,398.9,599,390.7,599.1,378.3z"/>
		<path class="st0" d="M676.5,344.5V398h-11.4v-53.5h-17v-9.7h45.4v9.7H676.5z"/>
		<path class="st0" d="M702,334.8h24.9c13.8,0,20.7,7.1,20.7,19.6c0,9.7-4.8,16.1-13.4,18l14.1,25.6h-13l-12.7-23.9h-9.1V398H702
			V334.8z M713.4,344.5v20.9h12c6.8,0,10.4-3.3,10.4-8.8v-3.6c0-5.6-3.8-8.6-10.4-8.6H713.4z"/>
		<path class="st0" d="M759.2,334.8h40.8v9.7h-29.4v16.7h25.6v9.2h-25.6v18h29.6v9.7h-40.9V334.8z"/>
		<path class="st0" d="M823.8,334.8h15.9l18.9,63.2h-11.4l-3.9-13.4H820l-4,13.4h-11.1L823.8,334.8z M840.9,375.9l-6-20.4l-3.1-11.4
			h-0.5l-3.1,11.4l-5.9,20.4H840.9z"/>
		<path class="st0" d="M866.2,334.8h17.1l13.1,47.2h0.2l13-47.2h17.3V398h-10.8v-50.8h-0.5l-1,4.4L901.7,398h-10.5l-12.9-46.4
			l-1-4.4h-0.5V398h-10.7V334.8z"/>
		<path class="st0" d="M955.7,387.3h10.6V398h-10.6V387.3z"/>
		<path class="st0" d="M995.1,334.8h11.4v26.3h25v-26.3h11.4V398h-11.4v-27.2h-25V398h-11.4V334.8z"/>
		<path class="st0" d="M1053.9,370.2v-7.5c0-19.3,10.3-28.7,26.6-28.7c16.4,0,26.8,9.5,26.8,28.7v7.5c0,18.8-9.5,28.7-26.8,28.7
			C1063.3,398.9,1053.9,389,1053.9,370.2z M1095.4,373.9V359c0-9.2-4.8-15.2-14.9-15.2c-10.1,0-14.8,6-14.8,15.2v14.9
			c0,10,5.6,15.2,14.8,15.2C1089.9,389.1,1095.4,383.9,1095.4,373.9z"/>
		<path class="st0" d="M1114.8,378.3h11.4c0.2,8,4.2,11.4,11.8,11.4c7.3,0,10.7-3.4,10.7-8.6c0-7.1-6.4-8.7-14.3-10.9
			c-10.5-2.8-18.4-7.2-18.4-18.4c0-11.6,8.7-18,21.7-18c14.2,0,21.9,6.9,22.1,19.2h-11.4c-0.2-6.8-3.6-10.2-10.8-10.2
			c-6.2,0-9.7,3.3-9.7,7.9c0,6.3,5.6,7.8,13.4,9.9c10.3,2.6,19.5,6.7,19.5,19.6c0,12.8-9.5,18.6-23.1,18.6
			C1122.3,398.9,1114.7,390.7,1114.8,378.3z"/>
		<path class="st0" d="M1192.3,344.5V398h-11.4v-53.5h-17v-9.7h45.4v9.7H1192.3z"/>
		<path class="st0" d="M1217.8,334.8h11.4V398h-11.4V334.8z"/>
		<path class="st0" d="M1243.5,334.8h14.3l21,42.2l1.1,2.9h0.4v-45.1h10.9V398h-13.8l-21.8-42.6l-1-2.4h-0.4v45h-10.8V334.8z"/>
		<path class="st0" d="M1302.2,371V363c0-19.5,10.4-29.1,27-29.1c14.5,0,24.2,7.6,25.1,21.5h-11.5c-1.1-7.9-6.2-11.7-13.7-11.7
			c-10.1,0-15,6.2-15,15.3v15c0,10.4,5.8,15.3,14.5,15.3c9.5,0,14.4-5.5,14.4-14.3v-1.8h-14.1v-8.4h25.7V398h-8.4l-0.9-10.8h-0.4
			c-2.2,7.2-9.3,11.6-18.6,11.6C1310.6,398.9,1302.2,389.1,1302.2,371z"/>
	</g>
</g>
<g>
	<path class="st1" d="M88.2,195.8h45.7c0.4,13.9,11.8,23.1,34.4,23.1c19.4,0,29.4-6.1,29.4-16.8c0-13.1-8.9-14.4-35.9-17.6
		c-47.1-5.7-69.7-16.8-69.7-47.9c0-32.2,27.9-50.5,73.9-50.5c41.6,0,68.6,17.2,71.5,48.4H193c-1.5-13.3-12.4-18.7-28.8-18.7
		c-17.2,0-27,6.1-27,15.7c0,11.5,7.4,13.5,36.4,16.8c48.4,5.4,69.5,15.5,69.5,50.5c0,31.4-27.2,50.3-76.5,50.3
		C113,248.9,88.4,226.9,88.2,195.8z"/>
	<path class="st1" d="M540.8,87.9h44v158.8h-44V87.9z"/>
	<path class="st1" d="M606.8,87.9h53.2l70.6,101.7h1.5l-1.3-46.4V87.9h43.6v158.8H722l-70.4-100.4h-2l1.5,44.7v55.8h-44.4V87.9z"/>
	<path class="st1" d="M796.3,87.9h65.6l33.1,83.4h1.5l32.2-83.4h65.6v158.8h-41v-56.9l0.7-58.4h-2l-37.5,93.2h-38.1L839,131.5h-2.2
		l0.7,58.6v56.6h-41.2V87.9z"/>
	<path class="st1" d="M1119.6,87.9l-59.7,158.8h-47.9l65.9-158.8H1119.6z"/>
	<path class="st1" d="M1197,87.9h53.2l70.6,101.7h1.5l-1.3-46.4V87.9h43.6v158.8h-52.3l-70.4-100.4h-2l1.5,44.7v55.8H1197V87.9z"/>
	<path class="st1" d="M1386.5,87.9h53.2l70.6,101.7h1.5l-1.3-46.4V87.9h43.6v158.8h-52.3l-70.4-100.4h-2l1.5,44.7v55.8h-44.4V87.9z"
		/>
	<polygon class="st1" points="447.8,150.7 447.8,122.6 525.7,122.6 512.3,87.9 403.8,87.9 403.8,246.7 512.4,246.7 525.8,212.1 
		447.8,212.1 	"/>
	<polygon class="st0" points="470.1,193.4 470.1,142.8 507.9,168.9 	"/>
	<polygon class="st1" points="338.4,246.7 338.4,122.8 375.4,122.8 388.7,87.9 244.3,87.9 257.6,122.8 294.6,122.8 294.6,246.7 	"/>
	<polygon class="st1" points="1131.2,119.6 1131.2,119.6 1109.9,176.2 1136.2,246.7 1184.1,246.7 	"/>
</g>
</svg>
